<svg
            xmlns="http://www.w3.org/2000/svg"
            viewBox="30 15 40 39"
            shape-rendering="crispEdges"
          >
            <path
              stroke="#000"
              d="M41 18h5m8 0h5m-19 1h2m1 0h17m-19 1h5m3 0h2m3 0h5m-10 1h2m-2 1h2m-2 1h2m-4 1h6m-5 1h4m-7 1h10m-12 1h3m9 0h2m-16 1h3m12 0h3m-19 1h2m16 0h2m-21 1h2m18 0h2m-27 1h6m20 0h3m1 0h2m-33 1h2m3 0h1m22 0h1m3 0h2m-34 1h1m3 0h2m22 0h2m3 0h2m-36 1h1m4 0h1m3 0h5m8 0h5m3 0h1m4 0h1m-36 1h1m3 0h2m2 0h2m3 0h2m6 0h2m3 0h2m2 0h2m3 0h1m-36 1h1m3 0h1m2 0h2m5 0h1m6 0h1m5 0h2m2 0h1m-32 1h2m2 0h1m2 0h1m6 0h1m6 0h1m6 0h1m2 0h1m2 0h2m-35 1h2m1 0h1m2 0h1m6 0h1m6 0h1m6 0h1m2 0h1m1 0h1m-32 1h1m1 0h1m2 0h1m6 0h1m6 0h1m6 0h1m2 0h3m-30 1h1m2 0h2m4 0h2m6 0h2m4 0h2m2 0h1m-28 1h1m3 0h2m2 0h2m8 0h2m2 0h2m3 0h1m-28 1h1m4 0h1m1 0h2m10 0h4m4 0h1m-16 1h1m2 0h1m11 0h1m-28 1h1m11 0h4m11 0h1m-28 1h2m11 0h2m12 0h1m-27 1h1m8 0h1m2 0h2m2 0h1m8 0h1m-26 1h1m8 0h8m8 0h1m-26 1h2m22 0h2m-25 1h2m20 0h2m-23 1h1m20 0h1m-22 1h2m18 0h2m-21 1h3m14 0h3m-18 1h3m10 0h3m-16 1h1m1 0h13m-16 1h2m13 0h2m-17 1h1m15 0h1m-18 1h2m3 0h1m11 0h2m-19 1h1m4 0h1m12 0h1m-19 1h1m4 0h1m8 0h3m1 0h2m-21 1h2m4 0h1m2 0h4m2 0h1m4 0h1m-21 1h1m5 0h1m5 0h1m1 0h1m1 0h2m1 0h2m-21 1h1m5 0h1m3 0h3m1 0h3m1 0h2m-21 1h1m6 0h2m3 0h1m4 0h3m-20 1h1m7 0h5m5 0h1m-19 1h1m8 0h1m8 0h3m-21 1h1m8 0h2m9 0h1m-21 1h1m9 0h1m7 0h1m1 0h1m-21 1h1m9 0h1m6 0h2m1 0h1m-21 1h1m8 0h2m6 0h1m2 0h1m-21 1h1m8 0h1m6 0h2m1 0h2m-21 1h2m5 0h4m4 0h2m2 0h1m-21 1h4m8 0h5m3 0h3m-24 1h2m2 0h2m4 0h2m5 0h1m2 0h2m1 0h1m-24 1h1m4 0h3m4 0h1m4 0h2m3 0h2m-25 1h2m4 0h1m1 0h6m5 0h5m-26 1h3m4 0h2m-24 1h10m2 0h4m5 0h2m-23 1h2m7 0h2m1 0h1m7 0h2m-21 1h3m15 0h1m-17 1h4m10 0h3m-14 1h5m4 0h3m-8 1h6m8-63h1M32 33h1m34 3h1m-6 9h1M53 60h1m2 6h1m-9 6h1m-1 1h1m-20 5h1m8 1h1m15-52h1m8 4h1M36 43h1m-2-4h1m30-1h1m-25 4h1"
            />
            <path
              stroke="rgb(107,141,228)"
              d="M46 27h7m-9 1h12m-14 1h16m-17 1h9m1 0h8m-19 1h20m-25 1h3m1 0h22m1 0h3m-31 1h3m2 0h22m2 0h3m-33 1h2m3 0h3m5 0h8m5 0h3m3 0h2m-34 1h1m4 0h1m8 0h6m7 0h2m4 0h1m-34 1h2m2 0h2m8 0h6m8 0h2m2 0h2m-32 1h1m1 0h2m8 0h6m8 0h2m1 0h2m-31 1h1m1 0h2m8 0h6m8 0h2m1 0h1m-28 1h2m8 0h6m8 0h2m-26 1h2m8 0h6m8 0h2m-26 1h3m6 0h8m6 0h3m-26 1h4m4 0h10m4 0h1m1 0h2m-26 1h11m2 0h1m1 0h11m-26 1h11m4 0h11m-25 1h5m14 0h4m-23 1h2m20 0h2m-19 8h1m-1 1h5m7 0h1m-14 1h6m7 0h2m-15 1h3m1 0h2m8 0h1m-16 1h4m1 0h2m8 0h2m-17 1h4m1 0h2m9 0h1m-17 1h4m1 0h2m7 0h4m-19 1h5m1 0h5m3 0h1m2 0h1m-18 1h5m1 0h3m7 0h1m-18 1h6m2 0h3m-11 1h7m-7 1h8m-8 1h8m10 0h1m-19 1h9m9 0h1m-19 1h9m9 0h1m-19 1h8m9 0h2m-19 1h8m-7 1h5m10 0h2m-16 1h7m7 0h2m-19 1h2m2 0h2m1 0h1m8 0h2m2 0h1m-22 1h4m3 0h4m7 0h3m-21 1h4m-5 1h4m-6 1h5m-19 1h7m4 0h7m-16 1h7m1 0h7m-12 1h10m-6 1h4m20-54h1m6 15h1m-12 1h1m11 2h1m-6 25h1m-13 3h1m5-43h1m-12 5h1M29 79h1m4-42h1m19 35h1"
            />
            <path
              stroke="rgb(240,250,224)"
              d="M42 35h3m10 0h3m-17 1h1m1 0h3m8 0h5m-19 1h5m10 0h5m-20 1h4m12 0h4m-20 1h3m14 0h3m-19 1h1m15 0h2m-17 1h1m13 0h2m-16-5h1m-1 4h1m0 1h1m1-4h1m8 0h1m-11 1h2m8 0h2m-13 1h1m12 0h1m-14 1h1m12 0h1m-13-1h2m8 0h2m-12 1h1m10 0h1"
            />
            <path
              stroke="rgb(206,11,80)"
              d="M43 37h1m12 0h1m-15 1h3m10 0h3m-15 1h1m12 0h1"
            />
            <path
              stroke="rgb(167,148,57)"
              d="M43 45h1m2 0h3m2 0h6m-17 1h6m1 0h2m2 0h2m1 0h6m-22 1h8m8 0h8m-23 1h22m-21 1h4m1 0h15m-20 1h3m1 0h16m-19 1h18m-16 1h14m-12 1h10m-7 2h1m1 0h5m-7 1h7m-7 1h8m-8 1h8m-8 1h5m-1 1h1m-1 1h1m-1 1h1m-2 1h3m-3 1h5m-8 1h8m-7 1h7m-7 1h7m-7 1h6m-6 1h6m-7 1h6m-5 1h4m-9-26h1m0 0h1m3 10h1m-6-6h1m-2 1h1m9 9h1m0 4h1M35 34h2m26 0h2m-31 1h2m28 0h2m-31 1h1m28 0h1"
            />
            <path stroke="rgb(57,41,128)">
              <animate
                id="wk"
                attributeName="d"
                dur="0.25s"
                values="M55 35h1m-14 0h3m11 0h2;M55 35h1m-14 0h3m11 0h2 M41 36h1m1 0h3m8 0h4m-16 0h1m15 0h1;M55 35h1m-14 0h3m11 0h2 M41 36h1m1 0h3m8 0h4m-16 0h1m15 0h1 M40 37h6m8 0h6; M55 35h1m-14 0h3m11 0h2 M41 36h1m1 0h3m8 0h4m-16 0h1m15 0h1 M40 37h6m8 0h6 M40 38h2m1 0h3m8 0h2m1 0h3m-18 0h1m13 0h1;M55 35h1m-14 0h3m11 0h2 M41 36h1m1 0h3m8 0h4m-16 0h1m15 0h1 M40 37h6m8 0h6 M40 38h2m1 0h3m8 0h2m1 0h3m-18 0h1m13 0h1 M40 39h6m8 0h6; M55 35h1m-14 0h3m11 0h2 M41 36h1m1 0h3m8 0h4m-16 0h1m15 0h1 M40 37h6m8 0h6 M40 38h2m1 0h3m8 0h2m1 0h3m-18 0h1m13 0h1 M40 39h6m8 0h6 M41 40h3m11 0h4m-15 0h1; M55 35h1m-14 0h3m11 0h2 M41 36h1m1 0h3m8 0h4m-16 0h1m15 0h1 M40 37h6m8 0h6 M40 38h2m1 0h3m8 0h2m1 0h3m-18 0h1m13 0h1 M40 39h6m8 0h6 M41 40h3m11 0h4m-15 0h1 M42 41h2M56 41h2;M55 35h1m-14 0h3m11 0h2 M41 36h1m1 0h3m8 0h4m-16 0h1m15 0h1 M40 37h6m8 0h6 M40 38h2m1 0h3m8 0h2m1 0h3m-18 0h1m13 0h1 M40 39h6m8 0h6 M41 40h3m11 0h4m-15 0h1;M55 35h1m-14 0h3m11 0h2 M41 36h1m1 0h3m8 0h4m-16 0h1m15 0h1 M40 37h6m8 0h6 M40 38h2m1 0h3m8 0h2m1 0h3m-18 0h1m13 0h1 M40 39h6m8 0h6;M55 35h1m-14 0h3m11 0h2 M41 36h1m1 0h3m8 0h4m-16 0h1m15 0h1 M40 37h6m8 0h6 M40 38h2m1 0h3m8 0h2m1 0h3m-18 0h1m13 0h1;M55 35h1m-14 0h3m11 0h2 M41 36h1m1 0h3m8 0h4m-16 0h1m15 0h1 M40 37h6m8 0h6;M55 35h1m-14 0h3m11 0h2 M41 36h1m1 0h3m8 0h4m-16 0h1m15 0h1;M55 35h1m-14 0h3m11 0h2"
                begin="4s;wk.end+4s"
              />
            </path>
          </svg>